<svg width="24" height="30" viewBox="0 0 24 30" xmlns="http://www.w3.org/2000/svg">
    <path d="M22.299 10.248h-2.69c0-4.296-3.298-7.573-7.51-7.573s-7.51 3.28-7.51 7.573H1.9C1.9 5.095 6.476 0 12.1 0c5.623.003 10.199 5.095 10.199 10.248zm1.59 4.392A2.681 2.681 0 0 0 21.2 11.97H3.244A2.681 2.681 0 0 0 .556 14.64v12.688A2.681 2.681 0 0 0 3.244 30H21.2a2.681 2.681 0 0 0 2.689-2.672V14.64zm-9.509 9.92a2.011 2.011 0 0 1-2.018 2.005h-.286a2.011 2.011 0 0 1-2.019-2.005v-5.437c0-1.108.903-2.005 2.019-2.005h.286c1.115 0 2.018.897 2.018 2.005v5.437z" fill="#96A7C7" fill-rule="nonzero"/>
</svg>
