<svg width="72" height="32" viewBox="0 0 72 32" fill="none" xmlns="http://www.w3.org/2000/svg">
    <rect width="72" height="32" rx="4" fill="#249CFC" fill-opacity=".08"/>
    <rect x=".5" y=".5" width="71" height="31" rx="3.5" stroke="#249CFC" stroke-opacity=".1"/>
    <path d="M9.3 14.28c-.64.78-1.32 1.54-2.04 2.3l-.64-2.04c2.12-2.3 3.68-4.98 4.68-8.04l1.78.84c-.48 1.44-1.1 2.8-1.86 4.1V25.1H9.3V14.28zm14.06-7.02V19.3h1.86v1.76h-4.04c1.36.84 2.58 1.76 3.68 2.76l-1.22 1.36c-1.24-1.18-2.52-2.2-3.84-3.08l.94-1.04H16.7l1.12.98c-1.14 1.2-2.56 2.26-4.24 3.16l-1.14-1.48c1.52-.76 2.82-1.66 3.9-2.66h-4.1V19.3h1.92V7.26h9.2zM16.02 19.3h5.5v-1.52h-5.5v1.52zm0-3.06h5.5V14.8h-5.5v1.44zm0-3h5.5v-1.38h-5.5v1.38zm0-2.92h5.5V8.86h-5.5v1.46zm11.86 5.78c.68-3.12 1.16-5.88 1.44-8.28.48.08 1 .14 1.52.16 4.64-.02 8.4-.48 11.28-1.36l.9 1.6c-3.1.84-7.16 1.3-12.16 1.38a89.34 89.34 0 0 1-.88 4.64h5.22v-3.68h1.92v3.68h7.14v1.86h-7.14v6.7c0 1.44-.7 2.18-2.06 2.18h-2.7l-.42-1.86c.86.08 1.68.12 2.46.12.52 0 .8-.32.8-.92V16.1h-7.32zm2.54 1.26 1.68.82c-1 2.32-2.16 4.34-3.48 6.06l-1.66-1.2c1.34-1.58 2.5-3.48 3.46-5.68zm10.8-.1a64.63 64.63 0 0 1 3.36 6.14l-1.8.9c-1-2.32-2.08-4.4-3.24-6.24l1.68-.8zm8.84-6.56c.42.88.8 1.94 1.16 3.18H53c.48-1.04.92-2.14 1.28-3.3l1.74.6c-.36 1-.74 1.9-1.16 2.7h2.16v1.82H46.96v-1.82h2.48c-.32-.9-.68-1.76-1.1-2.56l1.72-.62zm7.74-3.42h6.94v1.44c-.62 2.04-1.3 3.94-2.02 5.7 1.48 1.84 2.24 3.34 2.26 4.5 0 1.36-.28 2.3-.8 2.82-.56.52-1.7.8-3.38.8l-.6-2c.72.08 1.32.12 1.82.12.44-.02.74-.14.86-.38.12-.2.18-.66.2-1.36-.02-1.14-.82-2.64-2.38-4.5.66-1.5 1.3-3.3 1.94-5.38h-3v15.98H57.8V7.28zM47.34 8.4h3.68c-.2-.58-.4-1.12-.6-1.6l1.94-.32c.18.58.36 1.22.52 1.92h3.96v1.82h-9.5V8.4zm8.88 8.76V25h-1.9v-1.04h-4.44V25h-1.86v-7.84h8.2zm-6.34 5h4.44v-3.2h-4.44v3.2z" fill="#249CFC"/>
</svg>
