<svg width="24" height="24" viewBox="0 0 24 24" fill="none" xmlns="http://www.w3.org/2000/svg">
    <circle cx="12" cy="12" r="12" fill="#394E72" fill-opacity=".3"/>
    <path d="M12.216 4.512c1.317 0 2.387.35 3.21 1.09.822.72 1.234 1.708 1.234 2.942 0 1.008-.268 1.852-.782 2.51-.185.226-.761.761-1.728 1.604-.39.33-.679.7-.864 1.07-.226.412-.33.864-.33 1.358v.35h-2.2v-.35c0-.761.123-1.42.411-1.954.268-.576 1.05-1.42 2.325-2.551l.35-.391c.37-.473.575-.967.575-1.502 0-.72-.205-1.275-.596-1.687-.412-.411-1.008-.617-1.749-.617-.925 0-1.604.288-2.016.885-.37.493-.555 1.193-.555 2.098H7.34c0-1.502.432-2.674 1.296-3.538.864-.885 2.057-1.317 3.58-1.317zm-.37 12.034c.432 0 .802.124 1.09.412.288.267.432.617.432 1.049 0 .432-.164.782-.452 1.07a1.545 1.545 0 0 1-1.07.411c-.411 0-.782-.144-1.07-.432a1.428 1.428 0 0 1-.432-1.049c0-.432.144-.782.432-1.05.288-.287.659-.41 1.07-.41z" fill="#fff"/>
</svg>
