<svg width="34" height="32" viewBox="0 0 34 32" xmlns="http://www.w3.org/2000/svg">
    <path d="M33.86 13.58c.024.13.052.351.078.674.037.467.06 1.045.062 1.743v.006c0 .714-.022 1.302-.06 1.774-.024.306-.05.516-.072.64-.225 1.261-1.322 2.406-2.568 2.69l-.425.099a3.56 3.56 0 0 0-2.042 1.63 3.537 3.537 0 0 0-.386 2.563l.132.442c.37 1.223-.071 2.736-1.048 3.56-.099.084-.267.213-.515.385-.39.27-.889.584-1.509.942l-.004.002c-.617.354-1.137.628-1.563.83a10.08 10.08 0 0 1-.588.256c-1.205.44-2.747.066-3.619-.872l-.302-.324a3.547 3.547 0 0 0-2.428-.956c-.917 0-1.77.342-2.43.952l-.301.323-.004.003c-.876.933-2.406 1.307-3.61.87a7.043 7.043 0 0 1-.589-.255 22.75 22.75 0 0 1-1.565-.835 22.766 22.766 0 0 1-1.508-.94 7.088 7.088 0 0 1-.52-.386l-.003-.002c-.974-.828-1.416-2.34-1.046-3.56l.127-.425c.2-.87.069-1.787-.39-2.583l-.001-.003A3.532 3.532 0 0 0 3.125 21.2l-.424-.098C1.45 20.818.357 19.674.133 18.413a7.064 7.064 0 0 1-.074-.642C.022 17.3 0 16.711 0 15.997s.022-1.302.06-1.774c.024-.307.05-.517.072-.64.225-1.262 1.324-2.408 2.573-2.692l.436-.098a3.531 3.531 0 0 0 2.03-1.62c.455-.79.585-1.7.388-2.577l-.131-.434c-.37-1.225.07-2.733 1.047-3.557.098-.084.265-.212.513-.384.39-.27.887-.586 1.506-.947l.005-.002.004-.003a23.697 23.697 0 0 1 1.563-.83c.157-.074.293-.135.408-.183.079-.034.138-.057.18-.073 1.205-.44 2.747-.065 3.619.873l.307.33a3.54 3.54 0 0 0 2.423.95c.913 0 1.761-.338 2.413-.94l.322-.345c.877-.934 2.41-1.307 3.613-.868l.005.002c.041.015.1.039.179.072.114.049.248.11.404.184.424.202.94.475 1.558.828l.004.003c.62.357 1.118.67 1.509.94.253.175.423.304.52.386l.003.003c.975.829 1.417 2.344 1.044 3.564l-.005.018-.143.428a3.553 3.553 0 0 0 .392 2.56 3.553 3.553 0 0 0 2.02 1.618l.45.103c1.25.283 2.343 1.43 2.57 2.688zm-4.228.315h-.004l-.508-.12-.045-.014a5.978 5.978 0 0 1-3.444-2.793 6.23 6.23 0 0 1-.633-4.484l.014-.057.153-.47V5.95a.7.7 0 0 0-.124-.427 6.272 6.272 0 0 0-.265-.197c-.297-.21-.693-.465-1.199-.764a19.43 19.43 0 0 0-1.248-.682 6.667 6.667 0 0 0-.3-.139h-.006a.625.625 0 0 0-.209.015.652.652 0 0 0-.156.06.291.291 0 0 0-.052.035l-.352.385-.03.03a5.847 5.847 0 0 1-4.088 1.663 5.86 5.86 0 0 1-4.104-1.679l-.028-.028-.34-.372-.002-.003c-.062-.069-.327-.135-.417-.107l-.044.019c-.068.03-.156.07-.264.122-.326.16-.74.383-1.247.68-.505.301-.899.557-1.193.767a6.153 6.153 0 0 0-.268.201l-.004.003c.002 0 0 .001-.004.006a.66.66 0 0 0-.09.192.684.684 0 0 0-.028.167c0 .035.002.058.004.064l.146.493.01.042a6.243 6.243 0 0 1-.635 4.472A5.955 5.955 0 0 1 5.16 13.77l-.043.012-.043.01-.444.103c-.088.02-.278.222-.3.318a6.59 6.59 0 0 0-.034.337c-.028.368-.046.847-.046 1.447 0 .6.018 1.08.046 1.448a6.546 6.546 0 0 0 .034.338c.021.096.208.295.297.316h.004l.479.114.039.012a5.955 5.955 0 0 1 3.474 2.809 6.232 6.232 0 0 1 .633 4.482l-.009.035-.14.48v.004l-.002.01a.7.7 0 0 0 .124.427l.033.025c.058.045.135.102.233.171.297.21.694.466 1.2.766.507.3.92.523 1.245.681a6.066 6.066 0 0 0 .3.138l.007.001a.625.625 0 0 0 .21-.015.65.65 0 0 0 .156-.061.272.272 0 0 0 .054-.036l.333-.366.03-.03a5.872 5.872 0 0 1 4.106-1.675c1.549 0 3.01.612 4.109 1.685l.028.028.334.366.003.004c.062.068.326.135.417.106l.044-.019c.068-.03.156-.07.263-.122.327-.16.742-.383 1.25-.681.504-.299.898-.553 1.192-.762a5.958 5.958 0 0 0 .266-.2l.004-.002c-.002.001 0 0 .003-.005a.67.67 0 0 0 .091-.194.701.701 0 0 0 .028-.17.286.286 0 0 0-.004-.067l-.001-.003-.145-.496-.01-.04a6.212 6.212 0 0 1 .635-4.461 5.98 5.98 0 0 1 3.473-2.808l.04-.011.475-.113.005-.001c.088-.02.278-.222.3-.317a6.6 6.6 0 0 0 .034-.337c.028-.368.046-.847.046-1.445a20.05 20.05 0 0 0-.05-1.428 7.084 7.084 0 0 0-.036-.365c-.022-.095-.212-.298-.298-.318zM16.89 22.93a6.8 6.8 0 0 1-6.796-6.8 6.795 6.795 0 0 1 6.796-6.796 6.8 6.8 0 0 1 6.797 6.803c-.007 3.752-3.048 6.793-6.797 6.793zm-.017-2.946a3.862 3.862 0 0 0 3.858-3.856 3.86 3.86 0 0 0-3.858-3.86 3.856 3.856 0 0 0-3.857 3.855 3.86 3.86 0 0 0 3.857 3.86z" fill="#3B5078" fill-rule="nonzero"/>
</svg>
