<svg width="32" height="32" viewBox="0 0 32 32" fill="none" xmlns="http://www.w3.org/2000/svg">
    <path d="M16.534 28.175c-.085 0-.378-.128-.532-.281l-.009-.01-7.2-5.94h-5.79c-.279 0-.573-.144-.71-.281a1.108 1.108 0 0 1-.281-.71v-9.969c0-.218.084-.403.137-.456h.069l.075-.075c.137-.137.431-.281.71-.281h5.79l7.2-6.119.006-.006a.772.772 0 0 1 .556-.219c.138 0 .279.031.394.09l.016.01.015.006c.391.132.538.353.538.825v22.432c0 .472-.147.697-.538.825l-.056.018-.043.044c-.094.094-.175.097-.347.097zm8.722-2.49c-.31 0-.722-.16-.841-.394-.281-.563-.181-1.138.247-1.441.15-.063.362-.225.634-.488.278-.271.7-.74 1.131-1.428.72-1.15 1.575-3.115 1.575-5.965 0-2.85-.906-4.819-1.665-5.972a7.651 7.651 0 0 0-1.194-1.425c-.206-.19-.466-.406-.656-.484-.394-.285-.531-.982-.278-1.391.293-.285.643-.447.962-.447.169 0 .325.044.463.131.021.019.05.04.093.075a10.552 10.552 0 0 1 2.37 2.628c1.252 1.966 1.89 4.282 1.89 6.885 0 2.615-.616 4.94-1.825 6.91a10.209 10.209 0 0 1-2.269 2.612c-.053.043-.081.065-.103.087-.106.106-.416.106-.534.106zm-3.738-3.916c-.26 0-.706-.303-.84-.572l-.007-.016-.01-.012c-.256-.388.026-.95.454-1.24.2-.107 1.903-1.11 1.903-4.135 0-1.453-.563-2.45-1.038-3.032-.515-.63-1.034-.918-1.053-.93l-.018-.01-.022-.006c-.181-.06-.357-.266-.447-.525-.09-.26-.072-.52.044-.694l.018-.028.01-.032c.09-.268.487-.503.853-.503.14 0 .269.035.366.1l.065.044h.047c.14.053.91.438 1.672 1.31.678.778 1.487 2.128 1.487 4.13 0 2.279-.765 3.757-1.406 4.598-.706.921-1.425 1.318-1.575 1.378h-.075l-.075.075c-.1.093-.178.1-.353.1z" fill="url(#v4bocfpbwa)"/>
    <defs>
        <linearGradient id="v4bocfpbwa" x1="15.999" y1="3.828" x2="15.999" y2="28.175" gradientUnits="userSpaceOnUse">
            <stop stop-color="#3EC0FE"/>
            <stop offset="1" stop-color="#178EF6"/>
        </linearGradient>
    </defs>
</svg>
