<svg width="32" height="28" viewBox="0 0 32 28" xmlns="http://www.w3.org/2000/svg">
    <path d="M29.576 4.035A2.419 2.419 0 0 1 32 6.442v19.144A2.417 2.417 0 0 1 29.583 28H2.417A2.417 2.417 0 0 1 0 25.586V6.442a2.413 2.413 0 0 1 2.417-2.407zM17.491 8H15.47v1.928c-1.194.066-2.485.198-3.314.874-.828.658-.926 1.548-.926 2.372 0 1.187.341 1.697.926 2.126.512.378 1.34.758 1.486.824.708.33 1.414.675 2.145 1.005 1.023.477 1.705.757 1.925 1.137.107.187.12.463.122.562v.2c-.007.392-.117.853-1.389.853-.853 0-1.145-.264-1.243-.528-.097-.214-.073-.461-.073-.527v-.824H11.01c-.049 1.68.049 2.439 1.023 3.081.926.594 2.096.692 2.51.726.293.032.61.065.926.081V24h2.022v-2.109c1.244-.099 2.365-.214 3.315-.808C21.878 20.424 22 19.502 22 18.58c0-1.137-.341-1.665-.902-2.077-.267-.197-.609-.395-1.291-.724-.756-.363-1.51-.692-2.291-1.039-1.048-.445-1.876-.79-2.096-1.104-.073-.115-.121-.296-.121-.593v-.164c.006-.495.086-.99 1.072-.99.512 0 1.096.05 1.218.462.041.138.048.195.05.362v.973h3.947c.023-.89.122-2.159-.756-2.9-.804-.709-2.144-.791-3.339-.857V8zM28.111.443c.628 0 1.14.514 1.14 1.14 0 .625-.515 1.14-1.14 1.14H3.886c-.63 0-1.142-.515-1.142-1.14 0-.626.516-1.14 1.142-1.14H28.11z" fill="#249CFC" fill-rule="evenodd"/>
</svg>
