<svg width="28" height="28" viewBox="0 0 28 28" xmlns="http://www.w3.org/2000/svg">
    <path d="M4.731 2.374c.73 0 1.324.588 1.324 1.312 0 .724-.593 1.311-1.324 1.311h-.714c-.755 0-1.369.61-1.369 1.356v17.668c0 .748.614 1.356 1.369 1.356h19.967c.754 0 1.368-.608 1.368-1.356V6.353c0-.746-.614-1.356-1.368-1.356h-.896a1.317 1.317 0 0 1-1.324-1.31c0-.725.592-1.313 1.324-1.313h.896C26.198 2.374 28 4.16 28 6.353v17.668C28 26.215 26.198 28 23.984 28H4.017C1.802 28 0 26.215 0 24.02V6.354c0-2.193 1.802-3.98 4.017-3.98zm15.57 15.142c.763 0 1.383.613 1.383 1.37 0 .758-.62 1.37-1.383 1.37H7.533a1.377 1.377 0 0 1-1.383-1.37c0-.757.62-1.37 1.383-1.37zm0-6.607c.763 0 1.383.613 1.383 1.37 0 .757-.62 1.37-1.383 1.37H7.533a1.377 1.377 0 0 1-1.383-1.37c0-.757.62-1.37 1.383-1.37zM8.87 0c.763 0 1.383.613 1.383 1.37v5.178c0 .757-.62 1.37-1.384 1.37a1.377 1.377 0 0 1-1.383-1.37V1.37C7.487.613 8.107 0 8.87 0zM19.13 0c.763 0 1.383.613 1.383 1.37v5.178c0 .757-.62 1.37-1.383 1.37a1.377 1.377 0 0 1-1.383-1.37V1.37c0-.757.62-1.37 1.383-1.37zm-3.903 2.374c.73 0 1.324.587 1.324 1.311a1.32 1.32 0 0 1-1.324 1.313h-2.495a1.318 1.318 0 0 1-1.324-1.313c0-.724.592-1.31 1.324-1.31z" fill="#FFF" fill-rule="nonzero" opacity=".704"/>
</svg>
