<svg width="31" height="28" viewBox="0 0 31 28" xmlns="http://www.w3.org/2000/svg">
    <path d="M30.778 26.18c-.148.36-.358.677-.632.95a2.957 2.957 0 0 1-.955.64c-.365.153-.763.23-1.195.23H3.209a3.31 3.31 0 0 1-2.253-.87 3.074 3.074 0 0 1-.7-.95A2.689 2.689 0 0 1 0 25.014V9.402c0-.831.302-1.536.905-2.116.603-.58 1.337-.87 2.202-.87h24.786c.865 0 1.6.29 2.202.87.603.58.905 1.285.905 2.116v3.705h-7.75c-.865 0-1.599.284-2.202.853a2.772 2.772 0 0 0-.905 2.1c.023.568.148 1.07.376 1.508.182.372.483.71.904 1.017.422.306 1.03.46 1.827.46H31v5.97c0 .415-.074.803-.222 1.164zM26.357 4.907h-15.5c1.229-.612 2.39-1.203 3.482-1.772.956-.48 1.9-.962 2.834-1.443.933-.481 1.661-.853 2.185-1.115.797-.416 1.508-.607 2.134-.574.626.032 1.155.136 1.587.311.501.24.933.558 1.298.952l1.98 3.64zm-4.643 11.151c0-.415.148-.765.443-1.05.296-.284.66-.426 1.093-.426.432 0 .797.142 1.093.426.295.285.443.635.443 1.05 0 .416-.148.771-.443 1.066-.296.296-.66.443-1.093.443-.432 0-.797-.147-1.093-.443a1.452 1.452 0 0 1-.443-1.066z" fill="#249CFC" fill-rule="evenodd"/>
</svg>
