<svg width="40" height="27" viewBox="0 0 40 27" xmlns="http://www.w3.org/2000/svg">
    <path d="m15.8 25.457 3.6-3.471h.4c6.8 0 11.8-2.507 15.6-7.715-1.2-1.542-2.6-2.892-4-4.05l3-2.507c2.2 1.736 4 4.05 5.6 6.557-4.6 7.715-11.4 11.379-20 11.379-1.4.193-2.8 0-4.2-.193zm-11.2-5.4A28.658 28.658 0 0 1 0 14.271C4.6 6.557 11.4 2.893 20 2.893h2.2l-4 3.857c-6 .386-10.6 2.893-14 7.521C5 15.43 6 16.586 7 17.357l-2.4 2.7zM31.4 0l2.8 2.7L9 27l-2.8-2.7L31.4 0z" fill="#6178A1" fill-rule="nonzero" opacity=".5"/>
</svg>
