<svg width="24" height="24" viewBox="0 0 24 24" xmlns="http://www.w3.org/2000/svg">
    <path d="M13.983 2.748c.762 0 1.379.614 1.379 1.371s-.617 1.371-1.38 1.371H6.179a3.41 3.41 0 0 0-3.42 3.4v8.94a3.39 3.39 0 0 0 .992 2.422 3.43 3.43 0 0 0 2.428 1.006h10.811a3.43 3.43 0 0 0 2.428-1.006 3.39 3.39 0 0 0 .992-2.422V8.89c0-.757.617-1.37 1.379-1.37s1.379.613 1.379 1.37v8.94a6.138 6.138 0 0 1-1.804 4.357A6.21 6.21 0 0 1 16.99 24H6.178a6.21 6.21 0 0 1-4.374-1.813A6.138 6.138 0 0 1 0 17.83V8.89c.008-3.389 2.77-6.135 6.178-6.142h7.805zm8.99-2.701a1.371 1.371 0 0 1 .62 2.303l-12.41 12.34c-.26.257-.612.4-.978.398a1.383 1.383 0 0 1-.98-.398 1.367 1.367 0 0 1 0-1.947L21.636.403a1.39 1.39 0 0 1 1.338-.356z" fill="#FFF" fill-rule="nonzero"/>
</svg>
