<svg width="28" height="28" viewBox="0 0 28 28" fill="none" xmlns="http://www.w3.org/2000/svg">
    <path d="M24.369 21.098a5.104 5.104 0 0 0-.199-.936 1.916 1.916 0 0 0-.731-1.02 5.377 5.377 0 0 0-1.203-.64c-.446-.173-.913-.321-1.4-.444a10.944 10.944 0 0 1-1.352-.43c-.446-.18-.798-.386-1.054-.616a2.408 2.408 0 0 1-.57-.726 1.867 1.867 0 0 1-.198-.763 3.245 3.245 0 0 1 .062-.75 1.72 1.72 0 0 1 .149-.492c.066-.131.149-.25.248-.357.099-.107.21-.205.334-.295.125-.091.26-.202.41-.333.132-.098.252-.25.36-.455.107-.205.202-.406.284-.603.083-.23.166-.484.248-.763.149-.049.297-.14.446-.27.116-.115.232-.276.347-.48.116-.206.19-.48.224-.825a1.944 1.944 0 0 0-.013-.664 1.609 1.609 0 0 0-.161-.443.97.97 0 0 0-.248-.32c.017-.64-.024-1.288-.124-1.945a10.35 10.35 0 0 0-.433-1.758 5.663 5.663 0 0 0-.93-1.711 4.122 4.122 0 0 0-.72-.69 5.696 5.696 0 0 0-1.004-.614 6.033 6.033 0 0 0-1.214-.431 5.81 5.81 0 0 0-1.377-.16c-.364 0-.748.028-1.153.086a4.946 4.946 0 0 0-1.202.332c-.397.165-.785.39-1.165.677-.38.287-.728.652-1.041 1.095a4.973 4.973 0 0 0-.77 1.587 11.189 11.189 0 0 0-.346 1.662c-.067.607-.1 1.222-.1 1.845a1.8 1.8 0 0 0-.297.517 2.229 2.229 0 0 0-.137.59c-.024.23.004.485.087.764.083.278.178.491.285.64.108.147.211.262.31.344.116.082.232.14.348.172.082.279.164.534.247.763.083.213.178.418.285.615.108.197.228.353.36.468.248.23.483.45.707.664.223.214.351.51.384.886.017.246.025.476.025.69 0 .213-.038.418-.112.615-.074.197-.202.39-.384.578-.182.188-.438.39-.769.603a5.06 5.06 0 0 1-1.5.64c-.57.148-1.124.316-1.661.505a5.019 5.019 0 0 0-1.4.738c-.398.303-.645.75-.745 1.34-.148 1.051-.177 1.912-.086 2.584.09.674.218 1.076.384 1.207.099.082.33.172.694.27.364.099.806.197 1.327.296a54.47 54.47 0 0 0 3.656.553c.646.074 1.278.136 1.898.185.62.049 1.169.074 1.648.074.48 0 1.042-.02 1.686-.062a37.67 37.67 0 0 0 2.009-.184 57.697 57.697 0 0 0 2.07-.283c.686-.107 1.31-.222 1.872-.345.562-.123 1.033-.25 1.413-.382.38-.13.612-.253.694-.368.132-.165.227-.419.285-.763a6.69 6.69 0 0 0 .087-1.108c0-.393-.025-.78-.074-1.157zm-8.133-2.018c-.198.344-.388.59-.57.738a29.73 29.73 0 0 1 .335 1.562l.161.899c.05.278.074.467.074.566 0 .081-.062.197-.186.344a4.3 4.3 0 0 1-.434.443 3.626 3.626 0 0 1-.508.382c-.174.107-.302.16-.384.16-.083 0-.215-.058-.397-.172a6.966 6.966 0 0 1-.558-.394 3.74 3.74 0 0 1-.495-.456c-.141-.156-.211-.275-.211-.356 0-.148.028-.37.086-.665.058-.296.128-.603.211-.923.083-.32.157-.615.223-.886.066-.27.116-.455.149-.553a4.639 4.639 0 0 1-.446-.714c-.05-.082-.033-.19.05-.32.082-.131.181-.255.297-.37.132-.13.29-.27.47-.418h1.216c.198.148.372.287.52.419.133.114.24.238.323.37.082.13.108.245.074.344z" fill="#188FF6"/>
</svg>
